<svg xmlns="http://www.w3.org/2000/svg" width="900" height="500" viewBox="0 0 900 500"><rect width="100%" height="100%" fill="white"/><style>text{font-family:Arial,sans-serif;fill:#202124}.title{font-size:25px;font-weight:700}.sub{font-size:13px;fill:#5f6368}.lab{font-size:14px}.small{font-size:12px;fill:#5f6368}.axis{stroke:#9aa0a6;stroke-width:1}.grid{stroke:#e8eaed;stroke-width:1}.line{fill:none;stroke-width:3}.box{fill:#f8f9fa;stroke:#9aa0a6;stroke-width:1.4}</style><text x="40" y="42" class="title">Training-effect trajectory</text><text x="40" y="66" class="sub">Synthetic demonstration data — not empirical findings</text><line x1="85" y1="420" x2="850" y2="420" class="axis"/><line x1="85" y1="420" x2="85" y2="100" class="axis"/><line x1="85" y1="420.0" x2="850" y2="420.0" class="grid"/><text x="70" y="424.0" text-anchor="end" class="small">50</text><line x1="85" y1="345.0" x2="850" y2="345.0" class="grid"/><text x="70" y="349.0" text-anchor="end" class="small">60</text><line x1="85" y1="270.0" x2="850" y2="270.0" class="grid"/><text x="70" y="274.0" text-anchor="end" class="small">70</text><line x1="85" y1="195.0" x2="850" y2="195.0" class="grid"/><text x="70" y="199.0" text-anchor="end" class="small">80</text><line x1="85" y1="120.0" x2="850" y2="120.0" class="grid"/><text x="70" y="124.0" text-anchor="end" class="small">90</text><text x="160" y="448" text-anchor="middle" class="small">Baseline</text><text x="460" y="448" text-anchor="middle" class="small">Post</text><text x="760" y="448" text-anchor="middle" class="small">6-month</text><circle cx="160" cy="243.9" r="5" fill="#5f6368"/><circle cx="460" cy="227.4" r="5" fill="#5f6368"/><circle cx="760" cy="211.3" r="5" fill="#5f6368"/><polyline points="160,243.9 460,227.4 760,211.3" class="line" stroke="#5f6368"/><text x="790" y="95" class="small">Control</text><circle cx="160" cy="244.3" r="5" fill="#1a73e8"/><circle cx="460" cy="179.8" r="5" fill="#1a73e8"/><circle cx="760" cy="160.0" r="5" fill="#1a73e8"/><polyline points="160,244.3 460,179.8 760,160.0" class="line" stroke="#1a73e8"/><text x="790" y="117" class="small">Training</text></svg>