<svg xmlns="http://www.w3.org/2000/svg" width="900" height="500" viewBox="0 0 900 500"><rect width="100%" height="100%" fill="white"/><style>text{font-family:Arial,sans-serif;fill:#202124}.title{font-size:25px;font-weight:700}.sub{font-size:13px;fill:#5f6368}.lab{font-size:14px}.small{font-size:12px;fill:#5f6368}.axis{stroke:#9aa0a6;stroke-width:1}.grid{stroke:#e8eaed;stroke-width:1}.line{fill:none;stroke-width:3}.box{fill:#f8f9fa;stroke:#9aa0a6;stroke-width:1.4}</style><text x="40" y="42" class="title">Behavioral-health scenario transfer</text><text x="40" y="66" class="sub">Synthetic demonstration data — not empirical findings</text><line x1="85" y1="420" x2="850" y2="420" class="axis"/><line x1="85" y1="420" x2="85" y2="100" class="axis"/><rect x="125" y="233.6" width="36" height="186.4" fill="#9aa0a6"/><text x="143" y="223.6" text-anchor="middle" class="small">78.3</text><rect x="167" y="177.8" width="36" height="242.2" fill="#1a73e8"/><text x="185" y="167.8" text-anchor="middle" class="small">85.3</text><text x="164" y="448" text-anchor="middle" class="small">cognitive disability</text><rect x="305" y="248.6" width="36" height="171.4" fill="#9aa0a6"/><text x="323" y="238.6" text-anchor="middle" class="small">76.4</text><rect x="347" y="195.7" width="36" height="224.3" fill="#1a73e8"/><text x="365" y="185.7" text-anchor="middle" class="small">83.0</text><text x="344" y="448" text-anchor="middle" class="small">psychosis</text><rect x="485" y="258.3" width="36" height="161.7" fill="#9aa0a6"/><text x="503" y="248.3" text-anchor="middle" class="small">75.2</text><rect x="527" y="206.6" width="36" height="213.4" fill="#1a73e8"/><text x="545" y="196.6" text-anchor="middle" class="small">81.7</text><text x="524" y="448" text-anchor="middle" class="small">suicidal crisis</text><rect x="665" y="256.4" width="36" height="163.6" fill="#9aa0a6"/><text x="683" y="246.4" text-anchor="middle" class="small">75.5</text><rect x="707" y="202.6" width="36" height="217.4" fill="#1a73e8"/><text x="725" y="192.6" text-anchor="middle" class="small">82.2</text><text x="704" y="448" text-anchor="middle" class="small">youth behavioral health</text><text x="690" y="104" class="small">gray = control</text><text x="690" y="126" class="small">blue = training</text></svg>